PathFileType	4	(X/Y/Z)	./resultDataOpenSim/trcMotMarkerGrf/sub06/qtm-12-02.trc
DataRate	CameraRate	NumFrames	NumMarkers	Units	OrigDataRate	OrigDataStartFrame	OrigNumFrames
250.000000	250.000000	5	24	m	250.000000	181	482
Frame#	Time	L.Toe.Tip			R.Toe.Tip			L.Ankle.Lat			R.Ankle.Lat			L.Ankle.Med			R.Ankle.Med			L.Heel			R.Heel			L.Knee.Lat			R.Knee.Lat			L.Knee.Med			R.Knee.Med			L.Thigh.Upper			R.Thigh.Upper			L.ASIS			R.ASIS			V.Sacral			L.Acromium			R.Acromium			C7			L.Elbow			R.Elbow			L.Wrist.Lat			R.Wrist.Lat
		X1	Y1	Z1	X2	Y2	Z2	X3	Y3	Z3	X4	Y4	Z4	X5	Y5	Z5	X6	Y6	Z6	X7	Y7	Z7	X8	Y8	Z8	X9	Y9	Z9	X10	Y10	Z10	X11	Y11	Z11	X12	Y12	Z12	X13	Y13	Z13	X14	Y14	Z14	X15	Y15	Z15	X16	Y16	Z16	X17	Y17	Z17	X18	Y18	Z18	X19	Y19	Z19	X20	Y20	Z20	X21	Y21	Z21	X22	Y22	Z22	X23	Y23	Z23	X24	Y24	Z24

181	0.72	0.20236389	0.010971175	-0.046603762	-0.3960169	0.10373149	0.11305064	0.078569871	0.042251638	-0.073874616	-0.40392448	0.24801267	0.11812087	0.076831568	0.057090677	0.012522102	-0.36272262	0.22173613	0.040986649	0.003125179	0.014304618	-0.030724116	-0.42799005	0.28014021	0.047208513	0.13178441	0.41311017	-0.099775405	-0.056677438	0.37541377	0.18087326	0.10314128	0.41382907	0.019640573	-0.05108901	0.35809709	0.046211668	-0.0021157812	0.78549249	-0.16640479	-0.089680267	0.74126125	0.17072092	0.054068196	0.82182328	-0.10664112	0.018406298	0.79886085	0.13357922	-0.14922949	0.8897396	-8.4604428e-05	-0.003637752	1.2871175	-0.19222081	-0.013472211	1.2918188	0.17004498	-0.092059491	1.3300728	-0.015512093	-0.11254628	0.99416559	-0.23675286	-0.056285493	0.97482223	0.26254991	-0.043571578	0.76808688	-0.29910786	0.15847849	0.85144943	0.24242327
182	0.724	0.20229686	0.010966864	-0.046592419	-0.37810403	0.10496249	0.11261136	0.078534203	0.042269338	-0.073870806	-0.3878009	0.24904317	0.11798444	0.076689588	0.057156796	0.012458469	-0.34670385	0.223281	0.040724324	0.0030217071	0.014375566	-0.030786215	-0.41270577	0.28114368	0.047324242	0.13356312	0.4126963	-0.099712158	-0.041743655	0.37746036	0.18068443	0.10390435	0.41363862	0.019706066	-0.036316872	0.36031549	0.04590173	0.0041582368	0.78701347	-0.1667098	-0.080113396	0.74269462	0.16981167	0.060114733	0.82365231	-0.10730426	0.025097527	0.80130478	0.13332262	-0.14266153	0.89184812	-0.0004427496	0.00409556	1.2890786	-0.19223233	-0.0067442718	1.2938878	0.16997759	-0.084731667	1.332046	-0.015883524	-0.10290694	0.99496708	-0.23683905	-0.051938645	0.97718714	0.26144542	-0.030602477	0.76981058	-0.29900195	0.16049812	0.84949593	0.24333566
183	0.728	0.20222468	0.010963523	-0.046562808	-0.35996747	0.1059247	0.11211277	0.078470056	0.04230051	-0.073874215	-0.3717914	0.24966942	0.11779055	0.076511404	0.057255509	0.012365756	-0.33054042	0.22464754	0.040488753	0.0029155456	0.014471928	-0.030886794	-0.39741683	0.28177711	0.047451581	0.13533757	0.41236285	-0.099498679	-0.026883814	0.37978525	0.18041762	0.10444758	0.41370595	0.019785475	-0.021571675	0.36270841	0.045478309	0.010416405	0.78837895	-0.1670119	-0.070570075	0.74387286	0.16877682	0.066171321	0.82547689	-0.10789894	0.031792931	0.80382275	0.1330759	-0.13584496	0.89393056	-0.001022103	0.011757835	1.291104	-0.19223424	-6.2463941e-05	1.2960071	0.16993412	-0.077422607	1.3340577	-0.016228231	-0.093315039	0.99584138	-0.23688844	-0.047543158	0.97966412	0.26033486	-0.017562441	0.77166741	-0.29883265	0.16242475	0.84764949	0.24424631
184	0.732	0.20215922	0.010964094	-0.0465281	-0.3416278	0.10663484	0.11156269	0.078372317	0.042340728	-0.073908871	-0.35574806	0.24998087	0.11761751	0.076347079	0.057383604	0.012273014	-0.3141935	0.22583211	0.040252046	0.0028255992	0.014582555	-0.030971477	-0.3821377	0.28203536	0.047596849	0.13706557	0.41210085	-0.099176886	-0.012109269	0.38239212	0.18006679	0.10487832	0.4140173	0.019883432	-0.006936313	0.36529746	0.044940215	0.016585579	0.78962064	-0.16734843	-0.062890852	0.7457207	0.16806059	0.072238188	0.82728804	-0.10844159	0.038448572	0.80638716	0.132851	-0.1289925	0.8960325	-0.0017640341	0.019354703	1.2931918	-0.19222392	0.0065870364	1.2981714	0.16990793	-0.070136983	1.3360943	-0.016537297	-0.083776601	0.99677619	-0.23690569	-0.043183096	0.9822325	0.25922911	-0.0044808653	0.77365813	-0.29859509	0.16420849	0.8459207	0.24518414
185	0.736	0.20210808	0.01096524	-0.046492845	-0.32306413	0.1071157	0.11096707	0.078242374	0.042387123	-0.073977007	-0.33959737	0.25003006	0.11749865	0.076219611	0.057516886	0.012217536	-0.29772019	0.22681976	0.040018537	0.0027666494	0.014708826	-0.031015217	-0.36686702	0.28195884	0.047831605	0.1387084	0.41189718	-0.09879494	0.0025695036	0.38528442	0.17963158	0.1052675	0.41451905	0.020005685	0.0075994737	0.36811771	0.044321152	0.022551646	0.79075389	-0.16773736	-0.056846261	0.74830518	0.16771081	0.078297392	0.8290806	-0.10895503	0.045024052	0.80896405	0.13267072	-0.12227756	0.89815545	-0.0025620275	0.026904073	1.2953372	-0.19220187	0.013215934	1.3003798	0.1698932	-0.06287754	1.3381426	-0.016806698	-0.074284441	0.99776109	-0.23691589	-0.038909603	0.98487424	0.25814382	0.008636079	0.77577992	-0.29828332	0.16574401	0.84431516	0.24618947
